<?xml version="1.0" encoding="UTF-8" standalone="no"?>
<!-- Generator: Adobe Illustrator 16.0.0, SVG Export Plug-In . SVG Version: 6.00 Build 0)  -->

<svg
   xmlns:dc="http://purl.org/dc/elements/1.1/"
   xmlns:cc="http://creativecommons.org/ns#"
   xmlns:rdf="http://www.w3.org/1999/02/22-rdf-syntax-ns#"
   xmlns:svg="http://www.w3.org/2000/svg"
   xmlns="http://www.w3.org/2000/svg"
   xmlns:sodipodi="http://sodipodi.sourceforge.net/DTD/sodipodi-0.dtd"
   xmlns:inkscape="http://www.inkscape.org/namespaces/inkscape"
   version="1.1"
   id="Capa_1"
   x="0px"
   y="0px"
   width="485.211px"
   height="485.211px"
   viewBox="0 0 485.211 485.211"
   style="enable-background:new 0 0 485.211 485.211;"
   xml:space="preserve"
   sodipodi:docname="castle-black-shape_icon-icons.com_56738.svg"
   inkscape:version="0.92.4 (f8dce91, 2019-08-02)"><metadata
   id="metadata993"><rdf:RDF><cc:Work
       rdf:about=""><dc:format>image/svg+xml</dc:format><dc:type
         rdf:resource="http://purl.org/dc/dcmitype/StillImage" /></cc:Work></rdf:RDF></metadata><defs
   id="defs991" /><sodipodi:namedview
   pagecolor="#ffffff"
   bordercolor="#666666"
   borderopacity="1"
   objecttolerance="10"
   gridtolerance="10"
   guidetolerance="10"
   inkscape:pageopacity="0"
   inkscape:pageshadow="2"
   inkscape:window-width="1920"
   inkscape:window-height="1026"
   id="namedview989"
   showgrid="false"
   inkscape:zoom="1.7394494"
   inkscape:cx="242.6055"
   inkscape:cy="242.6055"
   inkscape:window-x="0"
   inkscape:window-y="28"
   inkscape:window-maximized="1"
   inkscape:current-layer="Capa_1" />
<g
   id="g956">
	<path
   d="M454.889,15.163v30.327h-30.327V15.163h-30.326v30.327h-30.327V15.163h-30.322v30.327v60.651l30.322,30.326v121.305   h-30.322v-30.327h-60.653v30.327h-60.65v-30.327h-60.654v30.327h-30.324V136.467l30.324-30.326V45.489V15.163h-30.324v30.327   H90.978V15.163H60.651v30.327H30.327V15.163H0v30.327v60.651l30.327,30.326v121.305v212.277h151.628v-60.653   c0-33.523,27.156-60.648,60.651-60.648c33.495,0,60.648,27.125,60.648,60.648v60.653h151.634V257.771V136.467l30.322-30.326V45.489   V15.163H454.889z M60.651,257.771v-45.49c0-8.412,6.781-15.163,15.166-15.163c8.38,0,15.161,6.751,15.161,15.163v45.49H60.651z    M394.235,257.771v-45.49c0-8.412,6.781-15.163,15.163-15.163s15.163,6.751,15.163,15.163v45.49H394.235z"
   id="path954" />
</g>
<g
   id="g958">
</g>
<g
   id="g960">
</g>
<g
   id="g962">
</g>
<g
   id="g964">
</g>
<g
   id="g966">
</g>
<g
   id="g968">
</g>
<g
   id="g970">
</g>
<g
   id="g972">
</g>
<g
   id="g974">
</g>
<g
   id="g976">
</g>
<g
   id="g978">
</g>
<g
   id="g980">
</g>
<g
   id="g982">
</g>
<g
   id="g984">
</g>
<g
   id="g986">
</g>
<path
   style="fill:#ffffff;stroke-width:0.57489455"
   d="M 30.699369,302.9941 V 136.41434 L 15.464663,121.18777 0.22995782,105.9612 V 60.684187 15.407174 H 15.177216 30.124474 V 30.651269 45.895365 L 45.502903,45.742251 60.881333,45.589138 61.0346,30.498156 61.187872,15.407174 h 14.650262 14.650268 v 15.234705 15.234706 h 15.522148 15.52216 V 30.641879 15.407174 h 14.94726 14.94725 V 60.684187 105.9612 l -15.2347,15.22657 -15.23471,15.22657 v 60.79916 60.79917 h 15.52216 15.52215 v -15.2347 -15.23471 h 29.89451 29.89452 v 15.23471 15.2347 h 30.75686 30.75686 v -15.2347 -15.23471 h 29.89451 29.89452 v 15.23471 15.2347 h 15.52215 15.52216 V 197.2135 136.41434 L 348.9035,121.18777 333.6688,105.9612 V 60.684187 15.407174 h 14.94725 14.94726 v 15.234705 15.234706 h 15.52215 15.52216 V 30.641879 15.407174 h 14.94726 14.94725 v 15.234705 15.234706 h 15.23471 15.23471 V 30.641879 15.407174 h 14.94725 14.94726 V 60.684187 105.9612 l -15.2347,15.22657 -15.23471,15.22657 V 302.9941 469.57387 h -75.31119 -75.31118 l -0.005,-29.46335 c -0.005,-32.35109 -0.41164,-39.73958 -2.60018,-47.29181 -9.42664,-32.53023 -43.11588,-51.26897 -75.36929,-41.9223 -12.59093,3.64871 -23.8494,11.40871 -32.05645,22.09517 -4.88314,6.3584 -8.92242,15.43874 -10.65949,23.96264 -1.11902,5.49115 -1.18707,7.73941 -1.18707,39.22234 v 33.39731 H 106.298 30.699369 Z m 60.237589,-70.13306 c -0.179534,-28.02775 -0.06108,-27.15956 -4.281188,-31.37966 -2.780725,-2.78073 -5.582721,-4.01287 -9.768637,-4.29563 -6.520782,-0.44047 -12.10398,2.65506 -14.877754,8.24878 -1.060766,2.13918 -1.137653,3.77504 -1.289155,27.42651 l -0.161108,25.15163 h 15.269475 15.269475 z m 334.030062,0.57489 c -0.16987,-23.52858 -0.22872,-24.68707 -1.38003,-27.16377 -2.82174,-6.07019 -7.6032,-9.20712 -14.00127,-9.18568 -6.11802,0.0205 -11.14798,3.00615 -14.02241,8.32334 -1.21228,2.24249 -1.24727,2.92394 -1.40967,27.45122 l -0.16653,25.15163 h 15.57868 15.57868 z"
   id="path995"
   inkscape:connector-curvature="0" /></svg>